<svg id="Layer_1" data-name="Layer 1" xmlns="http://www.w3.org/2000/svg" viewBox="0 0 449.5 639.85"><defs><style>.cls-1{fill:#febe3f;}.cls-2{fill:#002639;}.cls-3{fill:#872634;}.cls-4,.cls-7{fill:#9ea1a1;}.cls-5{fill:#0e4c87;}.cls-5,.cls-6,.cls-7{fill-rule:evenodd;}.cls-6,.cls-8{fill:#fff;}</style></defs><polygon class="cls-1" points="0 142.19 225.51 0 449.5 142.19 449.5 496.9 224.75 639.85 0 497.66 0 142.19"/><path class="cls-2" d="M514,227.55V560.92l-88.57,57.21h0l-3.06,2h0l-31.23,20.18,0,0h0l-.07,0,0,0,0,0L372.2,652.54l-3.59,2.32-15.25,9.85-9.86,6.37-24.07,15.55L306,695.28l-13.46-8.65L270,672.14l-11.62-7.47h0l-15.1-9.7-4.81-3.09-14.95-9.62-1-.66-1.09-.7h0l-1.84-1.18h0l-29.54-19-.63-.41h0l-2.45-1.57-40.58-26.08-48.26-31V227.55L306.74,93.91Z" transform="translate(-81.25 -76.07)"/><polygon class="cls-3" points="432.84 150.48 16.92 485.56 16.92 150.48 225.58 16.84 432.84 150.48"/><polygon class="cls-4" points="224.72 470.89 224.62 470.9 224.62 470.89 224.72 470.89"/><polygon class="cls-4" points="224.82 470.89 224.82 470.9 224.72 470.89 224.82 470.89"/><polygon class="cls-4" points="224.72 470.89 224.62 470.9 224.62 470.89 224.72 470.89"/><path class="cls-4" d="M306,526.63l-.1.06v-.12Z" transform="translate(-81.25 -76.07)"/><path class="cls-4" d="M306.07,526.57v.12l-.1-.06Z" transform="translate(-81.25 -76.07)"/><polygon class="cls-4" points="224.82 470.89 224.82 470.9 224.72 470.89 224.82 470.89"/><path class="cls-4" d="M306,526.63l-.1.06v-.12Z" transform="translate(-81.25 -76.07)"/><path class="cls-4" d="M306.07,526.57v.12l-.1-.06Z" transform="translate(-81.25 -76.07)"/><path class="cls-4" d="M365.36,483.07c-.26-4.74-3.94-4.47-4.73-4.21a55.5,55.5,0,0,0-5.26,3.94,16.18,16.18,0,0,1-2.62.53c-1.21.17-15.64-.45-25.66-1l-6.23-317.5s-9.82-38.33-14.35-45c0,0,0,0,0,0l-.13-.2c-.38-.43-.65.14-.65.14-4.47,6-14.46,45.21-14.46,45.21L285,482.29c-10,.59-24.41,1.21-25.62,1a16.18,16.18,0,0,1-2.63-.53,56.23,56.23,0,0,0-5.24-3.94c-.79-.26-4.47-.53-4.73,4.21s3.67,5.52,3.67,5.52l40.88,2.69v6h3.94v37.33l2.32,30a14.72,14.72,0,1,0,16.91,0l2.07-30.27.51-36.8h3.68v-6.25l40.92-2.69S365.62,487.8,365.36,483.07Zm-59.23,9.2h0Zm0-17.77-.09-.05-.08.05v-.1l.08.05.09-.05Z" transform="translate(-81.25 -76.07)"/><path class="cls-5" d="M346.47,534.22c0,.66-1,.94-1.16,1.62-.15.84.91,3.85,1.16,4.87,1,4.1,2,7.73,3,11.94a13.23,13.23,0,0,1,.57,2.31c-.14,1.14-1.92,1.44-1.5,2.79.34.85,1.5,1.34,1.27,3.13-.1.77-.76,1.18-.92,2.08a17.82,17.82,0,0,0,.35,3.83c.2,2.55.37,5.22.57,7.76a19.77,19.77,0,0,0,.35,3.83c.46,1.43,1.79,1.74,1.39,4.06-.15.9-.83,1.45-1.39,2.31a20.84,20.84,0,0,1,.7,2.9c3.94-.44,4.57,5.27,1.62,6.38.39,1.61.79,3.22,1.16,4.86,3.89-.3,4.57,5.27,1.62,6.5.39,1.62.84,3.18,1.16,4.86,4.13-.67,4.81,5.5,1.62,6.38.33,1.68.83,3.19,1.16,4.87,3.89-.74,5.13,5.48,1.62,6.49.24,1,.45,2,.7,2.9a66.46,66.46,0,0,1-34.66,9.39A67.63,67.63,0,0,1,292.23,631a12.66,12.66,0,0,1,.69-3c-3.38-.87-2.57-7.41,1.51-6.49.49-1.52.75-3.27,1.27-4.75-3.08-1.07-2.77-7.06,1.51-6.61.49-1.52.75-3.27,1.27-4.75-2.87-1.08-2.52-7,1.51-6.5.51-1.53.72-3.37,1.28-4.86-3-1.06-2.45-6.94,1.5-6.49,0-1,.8-1.72.7-2.67s-1.46-1.68-1.39-3.36c0-1.18.5-1.63,1.16-2.78-.37-2.57.5-4.81,0-7-.23-1-1.18-1.46-1.28-2.32a4.21,4.21,0,0,1,.81-2.66c-1.21-1.37-3.32-1.22-5-1.63a66.21,66.21,0,0,1-9.74-3.24c-2-.82-4-1.5-5.33-2.78-4.11-.55-7.36-3.28-7.53-7.77a8.25,8.25,0,0,1,4.29-7.53c-1.62-.24-3,.25-4.29.23a9.56,9.56,0,0,1-9-8.23c-.61-5.4,2.55-8.8,7-9.85-3.08-1.76-5.65-4.5-5.45-8.93.24-5.23,4.16-8.39,9.51-8.58a10.43,10.43,0,0,1-3-6.14,9.51,9.51,0,0,1,13.33-9.5c.76.34,1.4,1,2.32,1.39s2.2.6,3.25.92a88.15,88.15,0,0,1,9,3.37c.68-.18,1.72-1.17,2.62-1.51a64.65,64.65,0,0,1,15.46,2.09c1.56.37,3.51.49,4.64,1.15.75.45,1.38,2.09,2,2.9a19.51,19.51,0,0,0,3.24,2.9c2.35,1.92,4.18,3.39,6.73,5.45,1.14.93,2.83,1.91,3.24,2.78s.07,2.08.23,3.25,1.08,2.74,1.62,4.17C343.4,525.8,344.83,530.18,346.47,534.22Z" transform="translate(-81.25 -76.07)"/><path class="cls-6" d="M321.09,591.48c4.84-1,6,6.29,1.62,7.07-2.16.38-5.39-1.37-4.29-4.87A3.46,3.46,0,0,1,321.09,591.48Zm.34,6.6c4.77.57,4.6-7.17-.23-6.14C317.75,592.67,318.26,597.71,321.43,598.08Z" transform="translate(-81.25 -76.07)"/><path class="cls-6" d="M330.94,591.48a3.58,3.58,0,0,1,4.52,3.7c-.3,5.48-9.09,3.61-7.07-1.62A3.46,3.46,0,0,1,330.94,591.48Zm.46,6.6c4.52.49,4.63-7.05-.23-6.14C327.75,592.58,328,597.71,331.4,598.08Z" transform="translate(-81.25 -76.07)"/><path class="cls-6" d="M323.4,592.64c3,1.78-.89,6.79-3.36,4.17.64-.23.88.24,1.51.23a2.45,2.45,0,0,0,2.43-2.43C324,593.81,323.36,593.43,323.4,592.64Z" transform="translate(-81.25 -76.07)"/><path class="cls-6" d="M333.26,592.64h.35a3.09,3.09,0,0,1,.69,2.89c-.5,1.61-3.1,2.86-4.29,1.28,1.95.66,4.24-.35,3.83-2.79C333.74,593.48,333.3,593.36,333.26,592.64Z" transform="translate(-81.25 -76.07)"/><path class="cls-6" d="M321.32,604.46c6.13-1,4.91,9.16-.81,6.95C317.47,610.24,317.46,605.06,321.32,604.46Zm-2.55,2.78c-.91,4.86,5.87,4.92,6.26,1.16a3,3,0,0,0-3.48-3.48A3.06,3.06,0,0,0,318.77,607.24Z" transform="translate(-81.25 -76.07)"/><path class="cls-6" d="M331.29,604.46c5-.77,5.55,7.13.58,7.18C327.17,611.7,327.2,605.08,331.29,604.46Zm-2.44,2.32c-1.74,4.68,6.23,6.15,6.15,1.15a3.12,3.12,0,0,0-3.48-3A2.94,2.94,0,0,0,328.85,606.78Z" transform="translate(-81.25 -76.07)"/><path class="cls-6" d="M323.4,605.62c2.74,1.78-.44,6.57-3.36,4.4.67-.4,1.2.08,1.86,0a2.39,2.39,0,0,0,2.08-2.43C324,606.66,323.3,606.44,323.4,605.62Z" transform="translate(-81.25 -76.07)"/><path class="cls-6" d="M333.37,605.62c.19,0,.2.11.35.12a3,3,0,0,1-1.51,4.75c-.55.1-1.85.27-2.2-.7,1.62.6,3.5,0,3.83-1.39C334.08,607.35,333.38,606.57,333.37,605.62Z" transform="translate(-81.25 -76.07)"/><path class="cls-6" d="M321.09,617.56a3.58,3.58,0,0,1,4.4,4.29c-.81,4.53-8.75,3.28-7.07-2.09A3.46,3.46,0,0,1,321.09,617.56Zm.34,6.6c4.9.66,4.55-7.16-.23-6.14C317.93,618.71,318,623.71,321.43,624.16Z" transform="translate(-81.25 -76.07)"/><path class="cls-6" d="M330.94,617.56c4.92-1.1,6.1,6.27,1.74,7.07C327.84,625.51,326.57,618.53,330.94,617.56Zm-.23,6.49c4.91,1.61,5.79-7,.46-6C328.12,618.59,327.8,623.1,330.71,624.05Z" transform="translate(-81.25 -76.07)"/><path class="cls-6" d="M323.4,618.71c3,1.8-.89,6.8-3.36,4.18.64-.23.88.24,1.51.23a2.45,2.45,0,0,0,2.43-2.44C324,619.89,323.36,619.51,323.4,618.71Z" transform="translate(-81.25 -76.07)"/><path class="cls-6" d="M333.26,618.71h.35a3,3,0,0,1-1.63,4.87c-.53.08-1.76.09-2-.69,2,.67,4.24-.35,3.83-2.78C333.74,619.56,333.3,619.44,333.26,618.71Z" transform="translate(-81.25 -76.07)"/><path class="cls-6" d="M293,627c-.91,0-1.76-1.06-1.28-1.74.48.29.48,1.06,1,1.27,1.18-.58,1.1-2.92.93-4.17C295.16,623.24,294.09,626.3,293,627Z" transform="translate(-81.25 -76.07)"/><path class="cls-6" d="M321.43,630.54c5-.64,5.32,7.07.58,7.19C317.88,637.82,316.61,631.15,321.43,630.54Zm-2.66,4.29c.61,3.2,5.9,3.16,6.26-.35a3,3,0,0,0-3.36-3.48A3,3,0,0,0,318.77,634.83Z" transform="translate(-81.25 -76.07)"/><path class="cls-6" d="M331.29,630.54c5-.78,5.58,7.15.58,7.19C327.16,637.76,327.2,631.17,331.29,630.54Zm-2.44,2.32c-1.7,4.63,6.23,6.2,6.15,1.15a3,3,0,0,0-3.48-3A3,3,0,0,0,328.85,632.86Z" transform="translate(-81.25 -76.07)"/><path class="cls-6" d="M323.4,631.7c2.74,1.78-.44,6.57-3.36,4.4.59-.42,1.27.1,2,0a2.42,2.42,0,0,0,2-2.43C324,632.87,323.32,632.46,323.4,631.7Z" transform="translate(-81.25 -76.07)"/><path class="cls-6" d="M333.37,631.7a.54.54,0,0,0,.35.11c1.31,1.47.54,4.36-1.51,4.76-.55.1-1.85.26-2.2-.7,1.58.59,3.49,0,3.83-1.39C334.08,633.43,333.39,632.67,333.37,631.7Z" transform="translate(-81.25 -76.07)"/><path class="cls-6" d="M346.47,534.22c0,.66-1,.94-1.16,1.62-.15.84.91,3.85,1.16,4.87,1,4.1,2,7.73,3,11.94a13.23,13.23,0,0,1,.57,2.31c-.14,1.14-1.92,1.44-1.5,2.79.34.85,1.5,1.34,1.27,3.13-.1.77-.76,1.18-.92,2.08a18.4,18.4,0,0,0,.34,3.83c.21,2.55.38,5.22.58,7.76a19.77,19.77,0,0,0,.35,3.83c.46,1.43,1.79,1.74,1.39,4-.15.9-.83,1.46-1.39,2.32a20.85,20.85,0,0,1,.69,2.9c3.95-.44,4.58,5.27,1.63,6.37.39,1.62.79,3.23,1.16,4.87,3.89-.3,4.57,5.27,1.62,6.5.39,1.61.84,3.18,1.16,4.86,4.13-.67,4.81,5.5,1.62,6.38.33,1.68.83,3.19,1.16,4.87,3.89-.75,5.13,5.48,1.62,6.49.24,1,.45,2,.7,2.9a66.46,66.46,0,0,1-34.66,9.38A67.63,67.63,0,0,1,292.23,631a12.66,12.66,0,0,1,.69-3c-3.38-.88-2.57-7.41,1.51-6.49.48-1.52.75-3.27,1.27-4.75-3.08-1.07-2.77-7.07,1.51-6.61.49-1.52.75-3.28,1.27-4.75-2.87-1.08-2.52-7,1.51-6.5.51-1.53.72-3.37,1.28-4.87-3-1-2.46-6.94,1.5-6.48,0-1,.8-1.72.7-2.67s-1.46-1.69-1.39-3.36c0-1.18.5-1.64,1.16-2.78-.37-2.57.5-4.81,0-7-.23-1-1.18-1.46-1.28-2.32a4.21,4.21,0,0,1,.81-2.66c-1.21-1.37-3.32-1.22-5-1.63a66.21,66.21,0,0,1-9.74-3.24c-2-.82-4-1.5-5.33-2.78-4.11-.55-7.36-3.28-7.53-7.77a8.25,8.25,0,0,1,4.29-7.53c-1.62-.24-3,.25-4.29.23a9.56,9.56,0,0,1-9-8.23c-.61-5.4,2.55-8.8,7-9.85-3.08-1.76-5.65-4.5-5.45-8.93.24-5.23,4.16-8.39,9.51-8.58a10.43,10.43,0,0,1-3-6.14c-.63-6.75,6.39-12.64,13.33-9.51.76.35,1.4,1,2.32,1.4s2.2.6,3.25.92a90.5,90.5,0,0,1,9,3.36c.68-.17,1.72-1.16,2.62-1.5a64.58,64.58,0,0,1,15.46,2.09c1.56.37,3.51.49,4.64,1.15.75.45,1.38,2.09,2,2.9a19.51,19.51,0,0,0,3.24,2.9c2.35,1.92,4.18,3.39,6.73,5.45,1.14.93,2.83,1.91,3.24,2.78s.07,2.08.23,3.25,1.08,2.74,1.62,4.17C343.4,525.8,344.83,530.17,346.47,534.22Zm-62.13-41.73c-9.35-.77-12.82,11.77-6.26,15.76a15.65,15.65,0,0,1,8-12.52,3.07,3.07,0,0,1,2.32-1.85A8.85,8.85,0,0,0,284.34,492.49Zm16.93,25c1.62.8,4.29,1.89,5.44,3,3.51,3.4.58,9.81-4.28,10a36.44,36.44,0,0,1-6.61-.93c-.47-.07-2-.54-1.62-.23a45.83,45.83,0,0,1,4.63,1.27,21.87,21.87,0,0,1,4.52,1.39c4.4,2.47,2.81,11.59-3.48,11,4.35,1.31,4.18,8.22.7,10.08-2,1-4.64,1.64-6.95,2.43-2.47.85-4.8,1.75-7,2.44-.52.94-1.92,1-3.24,1.16a63.24,63.24,0,0,0,19.12,6.49c.87,2.07,3.19,2.52,6,2.9a56.59,56.59,0,0,0,16.46-.82c-3.41-4.62-7-10.84-7.42-18.89A33.83,33.83,0,0,1,325,525.64a16.43,16.43,0,0,1-8.7-8c-6.85-.11-10.95-3.59-13.21-8-.56-1.1-.76-2.26-1.28-3.59s-1.47-2.79-1-4.75c.17-.78,1-1.86.93-2.32a62.3,62.3,0,0,0-6.49-2.67c-2.3-.78-7.31-3.14-8.58-.58a74.15,74.15,0,0,1,10.66,7.54,13.7,13.7,0,0,1,3.13,3c2.19,4-1.06,8.36-5,8.69A57.67,57.67,0,0,1,301.27,517.53Zm-22.72-8.7c2.34.75,5.06,1.84,7.76,2.78,2.36.82,5.64,2.32,8,2.67a5.38,5.38,0,0,0,5.91-7.42c-.42-1-2-2.31-3.13-3.25a59.58,59.58,0,0,0-10.89-7.41C282.07,498.84,279,502.49,278.55,508.83Zm23.06-8.46a6.11,6.11,0,0,0,2,6.72,24.25,24.25,0,0,0,4.41,1.74c3.1,1.19,5.66,2.27,8.81,3.48,1.31.5,3.73,1.67,4.63,1.62,1.58-.08,3.72-2.25,4.41-3.36,1.89-3.05,1.19-8.35-1.51-9.85a17.33,17.33,0,0,0-4.29-1.28c-1.44-.34-3.08-.64-4.75-.93-3.13-.54-6.77-1.29-10.32-1-.12,0-.18.11-.23.12A5.14,5.14,0,0,0,301.61,500.37ZM322,514.16c2.09,2.79,3.84,5,6,7.65,1.29,1.58,1.7,2.67,3.94,2.67a7.85,7.85,0,0,0,7.77-6.84,6.42,6.42,0,0,0-.23-3.13c-.39-.79-2-1.74-3-2.55-3.11-2.59-6.58-5.49-9.27-7.65C328.13,509.38,325.61,512.84,322,514.16Zm10.44,42c-1.75-1.45-4.12-4.63-4.29-7.3a21.5,21.5,0,0,1,.46-3.94c.39-2.76.76-5.09,1.16-7.77a17.88,17.88,0,0,0,.58-3.94c-.06-.53-.59-1-.69-1.74-.34-2.1.25-4.78,0-6.83-2.68-3.48-5.5-6.8-8.24-10.21-6.39-2.34-13-4.44-18.77-7.41,0-.13-.15-.09-.12.11,2.21,5.87,6.22,9.93,14.14,10.09,1.78,4,5.06,6.53,9,8.34-4,5.18-7.65,11.92-7.65,21.1a31,31,0,0,0,7.77,21c6.67-1.45,13.25-3.39,18.2-6.49,1.67-1.05,3.46-2.26,4.17-4.18C343.79,560.19,336.39,559.41,332.45,556.12Zm-64.33-38.71a8,8,0,0,0,6.83,8.34c-2.54-6,.29-12.42,3.36-15.41.24-.24.89-.34.7-.81A8.22,8.22,0,0,0,268.12,517.41Zm11.82-7.53c-4.11,2.11-7,9.68-4.52,15.87,4.28.63,8.75,1.69,12.86,2.09-1.88-5.64.76-11.41,4.64-13.45C288.51,513,284.35,511.29,279.94,509.88Zm8.81,18c2.15.37,4.39.77,6.72,1.16s4.75,1.12,7,1c4.09-.13,7.2-5.68,4.05-9a13.86,13.86,0,0,0-2.9-1.74,84.56,84.56,0,0,0-10-4.52C289.42,516.36,287,522.13,288.75,527.84Zm41.38-3.13c.31,2.85-.43,4.39,0,6.72.6,3.29,5.2,6.68,10,6.15,1.71-.19,5.65-1.83,5.79-3.48.06-.69-1-2.71-1.39-3.82-1.45-3.84-3.18-8.55-4.52-11.6C338.89,522.77,335.41,525.58,330.13,524.71Zm-61.2,3.94c-5.31,5.46-.78,15.22,6.37,15a18.69,18.69,0,0,1-2.43-7.41,15.41,15.41,0,0,1,3.13-10A8.89,8.89,0,0,0,268.93,528.65Zm6.95,14.72c4.05-.09,8.12-.15,12.06-.34-2.51-4-1.74-10.44.81-13.33.22-.25.73-.57.58-.93-4.22-.77-8.52-1.46-12.87-2.09C272.64,530,272.45,539.47,275.88,543.37Zm12.64-.46c3.82-.45,8.53-.09,12.17-.46,5-.52,6.2-7,2.55-10A69.06,69.06,0,0,0,290,529.11C286.34,531.31,286,539.15,288.52,542.91Zm40.56,2.2a21.53,21.53,0,0,0-.46,3.71c.17,2.33,2,4.8,3.83,6.49a12.76,12.76,0,0,0,13.9,2c.77-.37,2.91-1.22,3.14-2.32s-.84-3.35-1.16-4.63c-1.28-5.08-2.22-9.38-3.48-14.14-3.84,3.34-12,1.85-14-2.32C330.27,537.33,329.58,541.63,329.08,545.11ZM297,553.8a19.12,19.12,0,0,0,3.71-1.27,5.67,5.67,0,0,0,2.08-3.71c.41-3.65-2.46-6.33-6.95-5.79-4.78.57-9.3.3-14.26.81-1.68,5.79.41,11.95,4.41,13.91C289.49,556.54,293.45,555,297,553.8Zm-16.23-10a7.61,7.61,0,0,0-5.1,7.18,7.35,7.35,0,0,0,10,7.07c-3.06-1.68-5.23-5.67-5.22-10.2,0-1.36.59-3.1.47-4ZM328,567.6c-7.8,1.72-18,2.94-25.15-.12-1.42,2.62.86,3.94,2.66,4.64,6.33,2.44,16.19.88,22.14-.35,6.86-1.41,13.13-3.29,18.09-6.72,2.08-1.44,5.45-4.71,2.31-6.72C344,563,335.35,566,328,567.6Zm5.33,3.36a70.7,70.7,0,0,1-19,2.9,29.75,29.75,0,0,1-8.57-1.16c-.85-.28-1.57-.76-2.09-.7v6.84c7.63,7.25,30.18,7.65,41.49,3,1.4-.58,4.23-1.76,4.53-2.79.2-.73-.26-2.64-.35-3.82-.3-3.82-.59-9-1-11.83C345.07,566.82,339.22,569.29,333.37,571Zm15,9.85c-10.64,6.77-35.87,6-44.86-1.39-2.37,2.73.43,5.41,2.78,6.72,8.32,4.64,24.35,5.11,35,2.32,4-1.05,11.89-3.63,9.15-8.92A8,8,0,0,0,348.33,580.81Zm-44.51,4.41c0,.89-.55,1.67-.58,2.55-.07,1.38.28,2.25,0,3.36s-1.15,1.72-1.63,3c-.24.64-.37,1.62-.58,2.44a16.51,16.51,0,0,0-.58,2.55c-.05,1.53.28,2.47-.11,3.7-.27.86-1,1.6-1.39,2.67a19.74,19.74,0,0,0-1.28,5,17.07,17.07,0,0,1-.11,3.36c-.29,1.08-1,1.92-1.39,2.9a19.42,19.42,0,0,0-1.28,4.87c-.07,1.34.32,2.4,0,3.59-.53,2-2.24,3.31-2.2,5.56,9.2,5.29,20.12,8.85,34.43,9,.26-16.15,0-32.8.11-49.14C317.76,590.59,309.22,589,303.82,585.22Zm54.94,39.87a23.63,23.63,0,0,1,0-3.47,18.28,18.28,0,0,0-1.16-4.87,26.73,26.73,0,0,1-1.39-2.79,25.5,25.5,0,0,1-.23-3.71,20.51,20.51,0,0,0-1.16-4.63c-.65-1.59-1.58-2.4-1.74-3.71-.13-1,.2-1.89.11-3a21,21,0,0,0-1.15-4.75c-.47-1.1-1.36-1.81-1.63-3-.47-2.15.39-4.2-.58-5.91-5.12,3.53-13,5.33-22,5.33-.27,16.19,0,32.88-.12,49.26,13.68-.46,24.52-3.76,33.27-9.16C361.08,628.6,359.17,626.92,358.76,625.09Zm-56.45-33c-.34.28-.44.8-.93.94-.74-.15-1.65-1.11-1.16-1.75.58.2.39,1.16,1.16,1.16,1.21-.61.77-3.14.93-4.17.45.17.33.91.58,1.28a5.44,5.44,0,0,0-.12-1.51c-3.3-.42-4,4.67-1.27,5.45C301.73,593.07,302.47,592.06,302.31,592.05Zm50,1.4c2.68-.74,1.83-5.88-1.4-5.33a6.32,6.32,0,0,0,1.05,5c1.31-.72,1.5-2.81.7-4.17C354.44,589.59,353.52,592.88,352.27,593.45Zm-53.55,11.24c.24-.34.86-.91.69-1.28a1.53,1.53,0,0,1-.81.93c-.75-.1-1.72-1.08-1.16-1.74.5.28.35,1.2,1.16,1.16,1.2-.68.74-3.09.93-4.17.62.34.31,1.62.58,2.32a8.56,8.56,0,0,0-.12-2.55C296.71,598.87,296,604,298.72,604.69Zm56.33.11c2.56-.75,2-5.92-1.39-5.33a6.61,6.61,0,0,0,.92,4.87,2.5,2.5,0,0,0,1.28-2.78c-.07-.51-.66-.84-.35-1.27C357.25,601.24,356,604.33,355.05,604.8Zm-58.54,10.09c-.42,1.45-2.7,0-1.85-1,.4.33.3,1.16,1,1.16a3.42,3.42,0,0,0,1.05-2.55c0-.64-.63-1.35,0-1.63.39.27.21,1.1.57,1.39a7,7,0,0,0-.11-1.5c-3.3-1-4.31,4.79-1.28,5.33C296.09,615.74,296.71,614.79,296.51,614.89ZM358.76,613c0-.26-.86-1.45-.35-1.51.28,0,.75.89.81,1.27.2,1.16-.41,2.88-1.27,3.25-.07,0-.13.09,0,.12,2.64-.86,2-5.91-1.39-5.45a6.23,6.23,0,0,0,1,5A2.8,2.8,0,0,0,358.76,613ZM294.43,622c-3.7-.69-4.24,4.91-1.28,5.45A6.56,6.56,0,0,0,294.43,622Zm65.95,5.22a3.59,3.59,0,0,0,1.16-3c-.07-.54-.65-.77-.35-1.27,1.59.89.8,3.86-.46,4.52,2.77-.67,2.09-6.14-1.51-5.33A6.11,6.11,0,0,0,360.38,627.18Z" transform="translate(-81.25 -76.07)"/><path class="cls-7" d="M320.79,576.7v.06a.57.57,0,0,1,0,.13,5.88,5.88,0,0,1,0,.73c0,.17,0,.35,0,.52a1,1,0,0,1,0,.17c0,.21-.05.42-.08.63a5.71,5.71,0,0,1-.13.72c-.05.24-.1.48-.16.71-.1.4-.23.78-.36,1.17h0l0,.05,0,.07c-.11.31-.23.6-.36.91l0,.08s0,0,0,0a.05.05,0,0,0,0,0c-.06.13-.12.26-.19.39a4,4,0,0,1-.24.46.36.36,0,0,1,0,.09l0,0,0,0c-.13.24-.27.47-.42.7a2.14,2.14,0,0,1-.2.32c-.14.22-.29.43-.45.64s-.4.53-.62.79l0,0a16,16,0,0,1-1.41,1.45c-.31.26-.62.52-.95.77l-.72.51a14.75,14.75,0,0,1-8.12,2.43c-.36,0-.71,0-1.06,0s-.87-.08-1.29-.15a3.4,3.4,0,0,1-.46-.09h0l-.65-.14a5.47,5.47,0,0,1-.58-.15,12.83,12.83,0,0,1-2-.74,14.64,14.64,0,0,1-2.28-25.44l-.11,0-.78-10a21.8,21.8,0,0,0,3.76-1.44c3.48-1.86,3.65-8.78-.69-10.09,6.29.58,7.87-8.54,3.48-11a21.36,21.36,0,0,0-4.53-1.39c-1.16-.34-2.32-.74-3.56-1v-.13l.55.12a35.58,35.58,0,0,0,6.61.92c4.86-.16,7.79-6.56,4.29-10-1.16-1.11-3.82-2.2-5.45-3a54.51,54.51,0,0,0-5.8-2.55c3.93-.34,7.18-4.73,5-8.69a13.93,13.93,0,0,0-3.13-3c-.65-.55-1.34-1.12-2.06-1.67v-4.33h-3.94V493h10.77v4.33l.58.91-.79.83a8.64,8.64,0,0,0-.47.79A4.94,4.94,0,0,0,301,501a8.79,8.79,0,0,0,.87,5.13c.51,1.34.71,2.5,1.27,3.6,2.27,4.4,6.36,7.89,13.22,8,.14.28.29.56.45.83l-.22,15.86-2.07,30.27a14.11,14.11,0,0,1,2.45,2.18l.42.48q.12.13.24.3a4.29,4.29,0,0,1,.36.48c.14.19.27.38.4.58h0c.1.16.2.32.31.48a12.86,12.86,0,0,1,.85,1.65,13.24,13.24,0,0,1,.54,1.41c.05.14.09.28.14.42l.12.41c0,.18.09.36.12.54l0,.15.09.43s0,.05,0,.07.06.34.08.51a4.43,4.43,0,0,1,.06.51c0,.22,0,.43.05.65S320.79,576.43,320.79,576.7Z" transform="translate(-81.25 -76.07)"/><rect class="cls-8" x="171.41" y="220.12" width="25.37" height="118.38"/><rect class="cls-8" x="252.99" y="220.12" width="25.37" height="118.38"/><rect class="cls-8" x="212.26" y="220.12" width="25.37" height="118.38"/><path class="cls-1" d="M365.41,366.7c20.41,13.79,32.82,25.47,31.65,31-.81,3.83-8,4.18-19.51,1.64h0c-3.72-.82-7.9-1.95-12.46-3.35a396.41,396.41,0,0,1-42.87-16.54h0l-5.5-2.5c-3.18-1.47-6.42-3-9.69-4.57q-4-1.92-8.08-4l-3.2-1.61c-4.87-2.46-9.64-5-14.27-7.45l-.43-.23a478.75,478.75,0,0,1-43.54-26.29c-.95-.65-1.88-1.3-2.8-1.95-17.24-12.19-27.44-22.33-26.38-27.38,1.19-5.65,16.2-3.73,38.63,3.86l.26-.72c-29.74-10.23-50.3-12.57-52-4.43-1.5,7.12,11.77,20.79,33.88,36.55,1.61,1.14,3.26,2.3,5,3.46,11.08,7.61,24.06,15.61,38.3,23.54,1.18.66,2.37,1.32,3.57,2q4.22,2.33,8.56,4.61,5.55,2.92,11.28,5.8l1,.53c8.38,4.18,16.57,8,24.49,11.53,3.87,1.72,7.68,3.35,11.39,4.89,12.41,5.15,23.9,9.31,34,12.35,5.6,1.69,10.77,3,15.42,4,15.28,3.23,25,2.5,26.13-3,1.69-8.07-15.57-24.56-43.2-43h0Z" transform="translate(-81.25 -76.07)"/></svg>